<?xml version="1.0" standalone="no"?>
<!DOCTYPE svg PUBLIC "-//W3C//DTD SVG 20010904//EN"
 "http://www.w3.org/TR/2001/REC-SVG-20010904/DTD/svg10.dtd">
<svg version="1.0" xmlns="http://www.w3.org/2000/svg"
 width="200.000000pt" height="61.000000pt" viewBox="0 0 200.000000 61.000000"
 preserveAspectRatio="xMidYMid meet">

<g transform="translate(0.000000,61.000000) scale(0.100000,-0.100000)"
fill="#000000" stroke="none">
<path d="M14 545 c-28 -42 -7 -70 82 -111 45 -20 74 -39 71 -47 -2 -8 -31 -13
-85 -15 -74 -3 -82 -5 -82 -22 0 -19 7 -20 105 -20 92 0 108 3 125 20 43 43
20 82 -77 125 -94 43 -92 58 7 65 46 3 75 10 78 18 3 9 -22 12 -102 12 -102 0
-106 -1 -122 -25z"/>
<path d="M270 450 l0 -120 34 0 35 0 3 52 3 53 37 -53 c33 -46 42 -52 73 -52
19 0 35 2 35 5 0 4 -19 33 -42 66 l-43 60 35 29 c19 16 38 30 42 30 4 0 28
-39 52 -88 l44 -87 -24 -48 -24 -47 32 0 c32 0 35 4 98 126 36 69 68 128 72
130 3 2 19 -35 35 -83 27 -80 32 -88 57 -91 37 -5 52 10 72 70 9 27 20 46 24
41 4 -4 15 -32 25 -60 15 -47 20 -53 45 -53 35 0 45 12 74 96 13 38 27 77 31
87 6 14 2 17 -22 17 -27 0 -31 -5 -47 -56 -10 -31 -21 -53 -24 -49 -4 3 -14
27 -23 53 -15 45 -18 47 -56 50 l-39 3 -19 -56 c-11 -30 -22 -55 -25 -55 -4 0
-14 25 -24 55 l-17 55 -63 0 -63 0 -23 -50 c-13 -27 -26 -50 -30 -50 -4 0 -17
23 -30 50 l-23 50 -75 0 c-65 0 -80 -3 -108 -25 -18 -14 -35 -25 -38 -25 -3 0
-6 20 -6 45 0 45 0 45 -35 45 l-35 0 0 -120z"/>
<path d="M1580 466 c0 -129 5 -136 96 -136 50 0 64 3 64 15 0 10 -10 15 -33
15 -46 0 -57 15 -57 82 l0 58 39 0 c22 0 44 6 51 15 11 13 6 15 -39 15 -44 0
-51 3 -51 20 0 16 -7 20 -35 20 l-35 0 0 -104z"/>
<path d="M1770 450 l0 -120 35 0 35 0 0 86 0 85 38 -3 37 -3 3 -82 3 -83 39 0
40 0 0 81 c0 113 -5 119 -90 119 -63 0 -70 2 -70 20 0 16 -7 20 -35 20 l-35 0
0 -120z"/>
<path d="M1126 514 c-12 -11 -16 -35 -16 -84 0 -91 12 -100 130 -100 119 0
130 9 130 104 0 43 -5 77 -12 84 -19 19 -212 16 -232 -4z m170 -40 c14 -20 15
-33 8 -61 -11 -45 -48 -62 -91 -41 -23 11 -29 20 -31 56 -4 55 10 72 59 72 30
0 42 -5 55 -26z"/>
<path d="M1410 511 c-5 -11 -10 -56 -10 -100 l0 -81 40 0 39 0 3 83 3 82 38 3
c24 2 37 8 37 18 0 11 -16 14 -70 14 -58 0 -71 -3 -80 -19z"/>
<path d="M613 125 c0 -33 2 -45 4 -27 2 18 2 45 0 60 -2 15 -4 0 -4 -33z"/>
<path d="M713 125 c0 -33 2 -49 4 -35 3 14 10 31 16 38 9 11 13 11 25 -5 13
-17 14 -17 10 2 -3 14 -11 19 -25 18 -15 -2 -23 4 -26 20 -2 12 -4 -5 -4 -38z"/>
<path d="M1093 125 c0 -33 2 -46 4 -28 5 41 31 52 39 15 10 -45 12 -48 13 -16
1 33 -15 55 -34 47 -8 -3 -15 5 -18 19 -2 13 -4 -4 -4 -37z"/>
<path d="M333 120 c0 -30 2 -43 4 -27 4 22 9 27 33 27 24 0 29 -5 33 -27 2
-16 4 -3 4 27 0 30 -2 45 -4 33 -3 -18 -11 -23 -33 -23 -22 0 -30 5 -33 23 -2
12 -4 -3 -4 -33z"/>
<path d="M1223 120 c0 -30 2 -43 4 -28 2 16 2 40 0 55 -2 16 -4 3 -4 -27z"/>
<path d="M660 156 c-3 -3 -4 -23 -2 -45 3 -30 9 -41 21 -41 11 0 12 3 4 8 -6
4 -13 25 -15 46 -2 21 -5 35 -8 32z"/>
<path d="M869 155 c-3 -5 -4 -27 -2 -47 4 -27 10 -38 22 -38 11 0 12 3 4 8 -6
4 -13 25 -15 47 -2 22 -6 36 -9 30z"/>
<path d="M1362 119 c2 -27 9 -44 18 -47 13 -5 13 -3 1 11 -7 9 -11 28 -9 42 3
14 1 28 -4 31 -5 4 -8 -12 -6 -37z"/>
<path d="M1738 155 c-10 -11 8 -79 22 -83 13 -5 13 -3 1 11 -7 9 -11 28 -9 42
5 24 -3 40 -14 30z"/>
<path d="M452 141 c-8 -5 -12 -21 -10 -37 2 -24 8 -29 31 -30 25 -1 25 -1 2 3
-18 3 -25 11 -25 28 0 32 20 42 37 20 7 -11 13 -14 13 -9 0 11 -20 34 -29 34
-4 0 -12 -4 -19 -9z"/>
<path d="M559 138 c11 -15 11 -18 0 -18 -11 0 -11 -2 1 -10 11 -7 12 -12 3
-21 -14 -14 -36 -2 -27 14 5 9 4 9 -6 0 -17 -16 -4 -33 26 -33 20 0 24 5 24
29 0 16 -8 35 -17 42 -16 13 -17 12 -4 -3z"/>
<path d="M932 141 c-8 -5 -12 -21 -10 -37 2 -24 8 -29 31 -30 25 -1 25 -1 2 3
-18 3 -25 11 -25 28 0 32 20 42 37 20 7 -11 13 -14 13 -9 0 11 -20 34 -29 34
-4 0 -12 -4 -19 -9z"/>
<path d="M1016 134 c-29 -28 -15 -65 23 -63 22 2 23 2 4 6 -32 6 -38 35 -13
55 12 10 18 18 12 18 -6 0 -18 -7 -26 -16z"/>
<path d="M1278 143 c-10 -2 -15 -10 -11 -19 4 -12 8 -12 18 3 16 22 25 14 35
-29 l8 -33 1 31 c1 27 -14 56 -28 53 -4 -1 -14 -3 -23 -6z"/>
<path d="M1511 136 c-19 -23 -10 -60 17 -64 30 -4 28 -20 -3 -25 -23 -4 -23
-4 2 -3 23 1 29 6 31 30 3 26 2 28 -12 17 -19 -16 -36 -6 -36 19 0 25 17 35
35 20 9 -7 15 -8 20 0 3 5 2 10 -4 10 -5 0 -16 2 -24 5 -7 3 -19 -1 -26 -9z"/>
<path d="M1613 143 c-8 -3 -12 -20 -12 -41 2 -34 2 -35 6 -7 3 16 10 33 16 37
14 9 6 17 -10 11z"/>
<path d="M1665 140 c-4 -6 1 -7 11 -3 13 5 16 3 11 -10 -3 -9 -1 -19 4 -23 7
-4 7 -10 1 -16 -12 -12 -35 -1 -27 13 4 5 1 9 -4 9 -6 0 -11 -9 -11 -20 0 -16
7 -20 30 -20 26 0 30 4 30 28 0 39 -30 67 -45 42z"/>
<path d="M1853 143 c-19 -7 -16 -62 3 -70 39 -15 71 40 38 64 -19 14 -22 14
-41 6z m36 -17 c14 -17 4 -46 -15 -46 -18 0 -28 24 -20 45 7 19 20 19 35 1z"/>
<path d="M1953 143 c-7 -2 -13 -12 -13 -21 0 -13 3 -12 14 4 17 23 26 16 36
-28 l8 -33 1 31 c1 16 -4 35 -11 42 -13 13 -16 13 -35 5z"/>
<path d="M1415 129 c-4 -5 -4 -21 -1 -35 5 -18 13 -24 34 -23 l27 1 -25 7
c-20 6 -25 13 -23 34 2 29 -2 34 -12 16z"/>
<path d="M1460 125 c0 -8 4 -15 10 -15 5 0 7 7 4 15 -4 8 -8 15 -10 15 -2 0
-4 -7 -4 -15z"/>
<path d="M1803 105 c0 -22 2 -30 4 -17 2 12 2 30 0 40 -3 9 -5 -1 -4 -23z"/>
</g>
</svg>
